<svg id="Calque_1" data-name="Calque 1" xmlns="http://www.w3.org/2000/svg" viewBox="0 0 1000 1000"><defs><style>.cls-1{fill:#ede7b1;}.cls-2{fill:#e4c1f9;}.cls-3{fill:#3c2b62;}</style></defs><title>Projet Spring</title><path class="cls-1" d="M64.39,755.5a298.87,298.87,0,0,1,20.42-66.82c36.6-83.29,100.8-125,114.13-133.37,25.3-15.86,81.23-45.5,155-44.81C412.39,511,454.4,530.38,508,555c65.16,30,62.75,42.31,141.72,79.44,56,26.35,94.42,37.63,137.27,38,50,.47,71.7-14.17,80.68-21.39,22.65-18.21,30.35-42.37,32-47.82,3.16-10.66,9.51-31.93,0-53.83-13.48-31-48.2-42.35-72.39-42.69-9.38-.12-36.69-.5-53.83,20.42-13.08,16-17.29,40.77-7.42,57.54,1.11,1.9,9.5,16.14,22.27,16.71a25.89,25.89,0,0,0,11.82-2.61c10.23-4.55,15.23-13.07,17-16.54-1-.42-14.45-6.57-16-19-1.66-13.62,12.18-25.47,24.26-26.81,16.93-1.88,31.32,16.76,33.91,32.52,2.47,15-5.78,27.19-12,36.38-3.74,5.53-12.55,18.2-29.33,25.76-31.31,14.11-61.3-2.66-63.11-3.71-20.28-11.79-28-30.48-31.55-39-12.71-30.65-4-58.52-1.86-65,10.62-31.35,34.87-47,45.09-53.35,32.79-20.44,77.56-25.34,117.1-7.6,5.63,2.53,52.78,24.62,68.43,77.56,11,37.18.26,68.63-4.56,82.12A154.47,154.47,0,0,1,908,681.53c-47.36,43.9-110.34,44.05-130.79,44.11-74.25.18-132.82-34.47-206.07-77.79-35.71-21.12-49.17-33-90.48-53-39.5-19.12-71.06-34-115.55-38-50.14-4.42-87.67,7.7-96.17,10.57C246,575.22,224,586.89,194.38,610.06,162.79,634.73,112.92,679.9,64.39,755.5Z"/><path class="cls-2" d="M65,520.32q8.6-75,79.25-91.24H158Q194,433.7,190.9,471.79q-7.08,39.32-39.32,30.41-20.9-26.42,13.21-36.56l2.76,1.84q2.14-.3,4.92-3.07-7.38-17.51-30.11-6.45-32.25,14.13-27,52.53a71,71,0,0,0,1.23,18.13l.61,3.68q.3,5.24,3.69,13.83l.61,1.23q25.18,33.48,53.45-4.3l6.45-3.69a11.27,11.27,0,0,1,8.61,3.07q6.45,55-53.46,71H120.24Q58.8,612.17,65,520.32Z"/><path class="cls-2" d="M212.4,487.45l-.21-1.84h47.52L256,492.37a8.91,8.91,0,0,1-1.64,3.27l-2,5.12a13.25,13.25,0,0,1-1.85,4.1l-1.23,4.3-.41,2.46-1.22,3.48a14.13,14.13,0,0,1-1.44,5.94v1l2.25,1.23q15,4.51,26.22,17.41V519.2l-.41-1.64v-6.35a19.22,19.22,0,0,1-.82-6.35,30.76,30.76,0,0,1-1.23-6.55l-.41-.82a22.59,22.59,0,0,0-.61-2.87c-.28-.95-.62-2-1-3.07a24.76,24.76,0,0,0-1.64-4.92h51.82a21.09,21.09,0,0,0-3.89,4.3,9.08,9.08,0,0,1-.72.62,9.33,9.33,0,0,0-1.33,1.43l-1.23,1.64-4.1,6.14-1.22,2.67-1.44,3.07-.82,2.25v1l-.82,1.85-.41,2.25-.81,6.55c-.28,1.37-.49,2.57-.62,3.59a22,22,0,0,1-.61,3l-.82,33.18a28.27,28.27,0,0,1,.41,5.32q2.25,68,23.55,60.21a14.52,14.52,0,0,0,5.94-3.68,8.27,8.27,0,0,0,.82-3.69q-13.93,2.25-17.62-8.6Q317.26,598,331.8,595q18.43-1,23.75,16.59,3.9,25.4-21.7,35.23-21.32,8.18-38.92-4.51-17-12.49-19.25-71.68a14.38,14.38,0,0,1-2.87-2.87c-.95-1.23-2-2.59-3.07-4.09l-1.84-2.26-1-1.63-2.05-2.46-1.44-1.84-4.91-5.33-1.23-1.43-2.87-2.25a47.13,47.13,0,0,0-5.94-2.67l-2.86-1.23-.82-.2a50.1,50.1,0,0,0,0,9.21l.41,7.58.41.62v2.66l.41,3.07.2,1.84a9.81,9.81,0,0,1,.62,2.67,15.09,15.09,0,0,0,1.22,5.53v1.23l.82,2.45v1.64l2.46,8.19.41,2.25,3.48,9.63H210.56l1.23-5.53v-1.23l1.22-4.09c.14-.69.24-1.26.31-1.74a9.31,9.31,0,0,0,.1-1.34l.82-5.12.41-1c0-.68,0-1.47.1-2.36s.17-1.87.31-3l.41-1.44a19.28,19.28,0,0,0,.31-2.35c.07-.89.1-1.88.1-3l.41-1.44c0-.68,0-1.46.1-2.35s.17-1.81.31-2.77v-2l.41-3.69c0-1,0-2,.1-3s.17-2.22.31-3.58v-6.15l-.41-4.09a28.69,28.69,0,0,0-3.79,1.12q-1.95.72-4.2,1.74,9.23,9.63-.82,19.66-16.59,3.28-16.38-14.74,1-21.09,25.19-26.83l-.82-9.63-.41-1.63V506.5l-.82-3.69a9.92,9.92,0,0,0-.41-3.07l-.82-6.35-.41-2.25L213,489.3Z"/><path class="cls-2" d="M347,477.42l5.33.2L398,478v7.17l-.41,2.66V506.7c.13.82.23,1.71.31,2.67s.1,2,.1,3.07l.41,9a2.39,2.39,0,0,1,.41,1.64l.41,6.76a24,24,0,0,0,1.22,7.37l.41,5.12a34.24,34.24,0,0,1,1.23,6.35l.82,2.46a10.47,10.47,0,0,0,.82,4.3L408,570.4a11.88,11.88,0,0,1,1.23,3.89l5.94,12.08,1.64,2.46,1.23,1.43.82.82,1.63,2.46,1.85,2.46H395.69l-2-6.35-.82-1.64-2.46-7.17-.82-2.87-.41-1.64-1.43-4.3-1.23-3.68-.41-1.64-4.92-13.52H369.27q-12.9,16.8-4.5,37.07H321.56Q359.85,511,347,477.42Zm24.58,33.79-.62-1.64L367.64,520c-.28,1-.62,2.12-1,3.49a28.74,28.74,0,0,1-1.84,4.5H376l1.23-.41a31.4,31.4,0,0,1-3.28-9.21,5.26,5.26,0,0,1-.81-2.46Z"/><path class="cls-2" d="M430.71,485c-.27-1.63-.44-2.76-.51-3.38a11.08,11.08,0,0,0-.51-2.15h20.48q72.7-4.5,61.44,55.3a32,32,0,0,1-2.15,4.61,48.69,48.69,0,0,1-3,4.61l-.41.61q14.74,19.67,15.15,60.21l-27.44-5.53q1.84-43.41-28.47-42.6a21.48,21.48,0,0,0-6.55-.81l-1.84-.41-1.23-.21a17,17,0,0,0,0,5.33l.82,6.34v1l.82,3.68a42.76,42.76,0,0,1,1.23,7l3.89,16,.2,1.44h-34a43.66,43.66,0,0,1,1-8l.41-2.66.2-2.05.41-1.23a27.11,27.11,0,0,1,.62-5.12l.41-2.46.2-2.87a19.28,19.28,0,0,0,.31-2.35c.07-.89.1-1.81.1-2.77l.21-1v-3.07l.41-2,.2-2.66.41-8v-3.89l.21-2.25V521a10.12,10.12,0,0,1-.21-2v-2.25L433,506.09a19.42,19.42,0,0,1-.31-2.25c-.07-.82-.1-1.78-.1-2.87l-.62-4.71a10,10,0,0,1-.2-1.85V493l-.82-6.14Zm54.68,33.39q1.85-18.22-25.39-17l-1.84.41a8.2,8.2,0,0,0-.41,4.71l-.41,2.05v2.86l-.41,2.87v1.23l-.21,1v3.69l-.41,1.23v2.66l-.41,1.23Q477.82,530.05,485.39,518.38Z"/><path class="cls-2" d="M527,598.25q10.85-62.06,7.78-88.48-1.44-13.51-2.15-20.27c-.48-4.51-.72-6.89-.72-7.17h35.43a25.78,25.78,0,0,0-1,6.15l-.41,1.43-.82,5.33c-.14.81-.27,1.67-.41,2.55s-.27,1.82-.41,2.77l-.41,3.48q-13.51,59.59-2.87,70,10.86,10.24,36.46-18.63V566.3l-.41,3.28v4.91l-.41,1.43L596.39,587c-.13.82-.24,1.74-.3,2.77s-.1,2.22-.1,3.58l-.42,1.44v5.32l-.41,2.87-68.6.61Z"/><path class="cls-2" d="M605.4,497.08l-.81-2.67h45.26q-26,46.9-4.51,102.4l-41-7.16q5.32-18.43,4.92-34.2v-1.64c.13-.82.23-1.67.3-2.56s.1-1.81.1-2.77V530.87a11.88,11.88,0,0,1-.4-5.73l-.41-4.51-.21-1-2.87-19.87-.41-1.84Z"/><path class="cls-2" d="M662.75,482.33c-.14-.68-.24-1.23-.31-1.64a6.09,6.09,0,0,1-.1-1q38.91,3.07,71.27,0l-2.05,5.73-1,2.46-3.28,9.63a7.24,7.24,0,0,0-.62,1.84c-.13.68-.27,1.43-.41,2.25Q715,489.1,700,498.31q-9,9-12.7,23.34c0,1.23.41,1.51,1.23.82q16-13.51,31.13,1,10.86,25-11.47,28.67-6.35-3.69-4.91-11.88,1.23-6.35,7.78-6.35-12.5-3.69-21.91,7.58a10,10,0,0,0-1.85,5.32q12.9,43.83,39.12,19.46a22.27,22.27,0,0,1,1.84,6.55l1.85,5.33.41,1.43,6.14,14.95c.27.69-.14,1-1.23,1a24.22,24.22,0,0,0-5.73-2.26l-1.44-.61L723,591.49l-2.87-.41-3.89-.41a18.87,18.87,0,0,0-2.46-.2h-25.6a9.9,9.9,0,0,0-1.84.2l-11.47.82q-2.25.21-6.86.72t-11.78,1.53A293.25,293.25,0,0,0,662.75,482.33Z"/><path class="cls-2" d="M751.43,452.43q-1.65-18.23,16-25,20.69-2.67,26,18.63,2,30.32-22.94,41.37c-2.59.55-4.37.28-5.32-.82q0-8,7.57-14.33l1-1.44.61-.61.82-1.44Q751.84,469.64,751.43,452.43Z"/><path class="cls-2" d="M814.91,520.42q-.4-31.12,29.9-37.27,36.87-4.5,43,22.53,2.46,28.68-21.5,25.39-20.09-6.35-9.83-27-5.75-4.92-11.88,1.64Q826,527.59,862,535.37l7.16,3.08,1.23.82q26,11.88,21.92,45.05-4.92,35.22-45.06,39.12T808,573.26l2.25-6.14,1.23-2.66q15.15-18.23,37.27-7,6.15,7.17,2.26,16.59-3.29,13.73-19.25,15.57,7.37,19.46,23.34,7.37,5.54-7.57,6.76-19a31.84,31.84,0,0,0-6.35-25.19Q844,540.92,826,536.6q-1-.61-2.25-1.53c-.82-.62-1.71-1.26-2.66-2l-.62-.41Q816.35,528.21,814.91,520.42Z"/><path class="cls-3" d="M72.88,501.18q8.59-74.94,79.25-91.23H166q35.94,4.6,32.87,42.7-7.08,39.32-39.32,30.41-20.89-26.42,13.21-36.56l2.76,1.84q2.15-.3,4.91-3.07-7.37-17.5-30.1-6.45Q118,453,123.26,491.35a71.46,71.46,0,0,0,1.22,18.13l.62,3.69q.3,5.22,3.69,13.82l.61,1.23q25.18,33.48,53.45-4.3l6.45-3.69a11.23,11.23,0,0,1,8.6,3.07q6.47,55-53.45,71H128.17Q66.73,593,72.88,501.18Z"/><path class="cls-3" d="M148.05,249.78q39-5.9,63,17.53l-1,5.22q-21.67,43.07-17.26,92l-15.16-4.85q-26.09-5.88-53.69,4.38l-9.77-30-.92-3.81-2.81-6.19-2.79-7.62-.93-3.8-.92-3.81-5.6-14.76a34.06,34.06,0,0,0-1.39-5q-.93-2.61-1.86-5l-3.71-12.37,6.19-3.28q1.9-.46,7.63-3.75"/><path class="cls-3" d="M93.44,386.16q22-17.88,51.92-22,39.44-4.47,68.68,24.22l-1,11.39-7.65,6.6-10.91-1q-39.24-27.33-85.49,1.31-9,.42-15.61-7.7A42.84,42.84,0,0,1,93.44,386.16Z"/><path class="cls-3" d="M220.33,468.31l-.21-1.84h47.52L264,473.23a9.18,9.18,0,0,1-1.64,3.28l-2.05,5.12a12.93,12.93,0,0,1-1.84,4.09l-1.23,4.3-.41,2.46L255.55,496a14.07,14.07,0,0,1-1.43,5.94v1l2.25,1.23q15,4.52,26.22,17.41v-21.5l-.41-1.64v-6.35a19.18,19.18,0,0,1-.82-6.35,30.76,30.76,0,0,1-1.23-6.55l-.41-.82a22.59,22.59,0,0,0-.61-2.87c-.28-1-.62-2-1-3.07a25,25,0,0,0-1.64-4.92h51.82a21.09,21.09,0,0,0-3.89,4.3,9.08,9.08,0,0,1-.72.62,9.33,9.33,0,0,0-1.33,1.43l-1.23,1.64-4.1,6.15-1.23,2.66-1.43,3.07-.82,2.25v1l-.82,1.84-.41,2.25-.82,6.56c-.27,1.36-.48,2.56-.61,3.58a21.69,21.69,0,0,1-.61,3L309.42,541a28.39,28.39,0,0,1,.4,5.32q2.26,68,23.56,60.21a14.52,14.52,0,0,0,5.94-3.68,8.27,8.27,0,0,0,.82-3.69q-13.93,2.25-17.62-8.6,2.67-11.67,17.21-14.75,18.42-1,23.75,16.59,3.88,25.4-21.71,35.23-21.3,8.19-38.91-4.51-17-12.5-19.25-71.68a14.12,14.12,0,0,1-2.87-2.87c-.95-1.22-2-2.59-3.07-4.09l-1.84-2.25-1-1.64-2-2.46-1.44-1.84L266.41,531l-1.23-1.43-2.87-2.25a47.13,47.13,0,0,0-5.94-2.67l-2.86-1.23-.82-.2a50.2,50.2,0,0,0,0,9.22l.41,7.57.41.62v2.66l.4,3.07.21,1.85a9.69,9.69,0,0,1,.62,2.66,15.05,15.05,0,0,0,1.22,5.53v1.23l.82,2.45v1.64l2.46,8.19.41,2.26,3.48,9.62H218.49l1.23-5.53V575l1.22-4.09c.14-.68.24-1.26.31-1.74a9.28,9.28,0,0,0,.1-1.33l.82-5.12.41-1c0-.68,0-1.46.1-2.35s.17-1.88.31-3l.41-1.44a19.28,19.28,0,0,0,.31-2.35c.07-.89.1-1.88.1-3l.41-1.43c0-.69,0-1.47.1-2.36s.17-1.81.31-2.76V541l.41-3.69c0-1,0-1.94.1-3s.17-2.22.31-3.58v-6.15l-.41-4.09a30.29,30.29,0,0,0-3.79,1.12q-2,.72-4.2,1.74,9.22,9.63-.82,19.67-16.59,3.27-16.38-14.75,1-21.09,25.19-26.83l-.82-9.62-.41-1.64v-2.87l-.82-3.69a9.92,9.92,0,0,0-.41-3.07l-.82-6.35-.41-2.25-.41-1.84Z"/><path class="cls-3" d="M354.88,458.28l5.33.2,45.67.41v7.17l-.41,2.66v18.85c.13.81.23,1.7.3,2.66s.11,2,.11,3.07l.4,9a2.35,2.35,0,0,1,.41,1.64l.42,6.76a24,24,0,0,0,1.22,7.37l.41,5.12a34.4,34.4,0,0,1,1.23,6.35l.82,2.46a10.47,10.47,0,0,0,.82,4.3l4.3,15a11.88,11.88,0,0,1,1.23,3.89l5.94,12.08,1.64,2.46,1.23,1.43.82.82,1.63,2.46,1.85,2.46H403.62l-2.05-6.35-.81-1.64-2.46-7.17-.82-2.87-.41-1.63-1.43-4.3-1.23-3.69-.41-1.64-4.92-13.52H377.2q-12.9,16.8-4.5,37.07H329.49Q367.79,491.86,354.88,458.28Zm24.58,33.79-.62-1.64-3.27,10.45c-.28.95-.62,2.11-1,3.48a28.35,28.35,0,0,1-1.84,4.5H384l1.23-.41a31.11,31.11,0,0,1-3.28-9.21,5.22,5.22,0,0,1-.81-2.46Z"/><path class="cls-3" d="M438.64,465.86c-.27-1.64-.44-2.77-.51-3.38a10.76,10.76,0,0,0-.51-2.15H458.1q72.7-4.51,61.44,55.29a31.54,31.54,0,0,1-2.15,4.61,48.69,48.69,0,0,1-3,4.61l-.41.61q14.75,19.66,15.15,60.21l-27.44-5.53q1.84-43.41-28.47-42.59a21.13,21.13,0,0,0-6.55-.82l-1.84-.41-1.23-.21a17,17,0,0,0,0,5.33l.82,6.35v1l.82,3.69a41.29,41.29,0,0,1,1.22,7l3.9,16,.2,1.44h-34a43.07,43.07,0,0,1,1-8l.41-2.66.2-2.05.41-1.23a27.11,27.11,0,0,1,.62-5.12l.41-2.46.2-2.86a19.73,19.73,0,0,0,.31-2.36c.07-.89.1-1.81.1-2.76l.21-1v-3.07l.4-2,.21-2.66.41-8v-3.89l.21-2.25V501.9a10.12,10.12,0,0,1-.21-2V497.6L440.89,487a22,22,0,0,1-.3-2.25c-.07-.82-.1-1.78-.1-2.87l-.62-4.71a9.19,9.19,0,0,1-.2-1.84v-1.44l-.82-6.14Zm54.68,33.38q1.85-18.23-25.39-17l-1.84.41a8.2,8.2,0,0,0-.41,4.71l-.41,2.05v2.87l-.41,2.86v1.23l-.21,1v3.69l-.41,1.23V505l-.41,1.23Q485.75,510.91,493.32,499.24Z"/><path class="cls-3" d="M534.9,579.11q10.85-62.05,7.78-88.47-1.44-13.51-2.15-20.28t-.72-7.17h35.43a25.78,25.78,0,0,0-1,6.15l-.41,1.43L573,476.1c-.14.82-.28,1.67-.41,2.56s-.28,1.81-.41,2.76l-.41,3.48q-13.51,59.6-2.87,70,10.86,10.24,36.46-18.63v10.85l-.41,3.28v4.91l-.41,1.44-.21,11.06c-.13.81-.24,1.74-.3,2.76s-.11,2.22-.11,3.58l-.41,1.44V581l-.41,2.87-68.6.61Z"/><path class="cls-3" d="M613.33,477.94l-.82-2.66h45.26q-26,46.89-4.5,102.4l-41-7.17q5.33-18.43,4.91-34.2v-1.64c.14-.82.24-1.67.31-2.56s.1-1.81.1-2.77V511.73a12,12,0,0,1-.41-5.73l-.41-4.51-.2-1-2.87-19.87-.41-1.84Z"/><path class="cls-3" d="M670.68,463.19c-.14-.68-.24-1.22-.31-1.63a6.3,6.3,0,0,1-.1-1q38.91,3.08,71.27,0l-2,5.74-1,2.45-3.28,9.63a7.24,7.24,0,0,0-.62,1.84c-.13.69-.27,1.44-.41,2.25Q722.9,470,708,479.17q-9,9-12.7,23.35c0,1.22.41,1.5,1.23.81q16-13.51,31.13,1,10.86,25-11.47,28.67-6.35-3.69-4.91-11.88,1.23-6.35,7.78-6.35-12.5-3.69-21.92,7.58a10,10,0,0,0-1.84,5.32q12.9,43.83,39.12,19.46a22.35,22.35,0,0,1,1.84,6.56l1.84,5.32.42,1.43,6.14,14.95c.27.69-.14,1-1.23,1a24.22,24.22,0,0,0-5.73-2.26l-1.44-.61-5.32-1.23-2.87-.41-3.89-.41a18.87,18.87,0,0,0-2.46-.2h-25.6a9.9,9.9,0,0,0-1.84.2l-11.47.82q-2.25.21-6.86.72t-11.78,1.53A293.22,293.22,0,0,0,670.68,463.19Z"/><path class="cls-3" d="M759.35,433.29q-1.64-18.23,16-25,20.68-2.67,26,18.64,2,30.3-22.94,41.36-3.9.82-5.32-.82,0-8,7.57-14.33l1-1.44.61-.61.82-1.43Q759.77,450.49,759.35,433.29Z"/><path class="cls-3" d="M822.84,501.29q-.4-31.14,29.9-37.28,36.87-4.5,43,22.53,2.46,28.68-21.5,25.4-20.09-6.36-9.84-27-5.73-4.9-11.87,1.64Q833.9,508.45,870,516.24l7.16,3.07,1.23.82q26,11.88,21.92,45-4.92,35.22-45.06,39.12t-39.32-50.18l2.25-6.14,1.23-2.66q15.15-18.23,37.27-7,6.15,7.18,2.26,16.59-3.28,13.72-19.25,15.57Q847,590,863,577.88q5.53-7.57,6.76-19a31.88,31.88,0,0,0-6.35-25.19q-11.48-11.86-29.49-16.17c-.69-.42-1.43-.93-2.25-1.54L829,514l-.62-.41Q824.28,509.07,822.84,501.29Z"/></svg>